# xmcd
#
# Track frame offsets:
#	150
#	11714
#	22451
#	33764
#	45934
#	56227
#	67154
#	80376
#	92778
#	107347
#
# Disc length: 1585 seconds
# Revision: 0
# Processed by: cddbd v1.5.2PL0 Copyright (c) Steve Scherf et al.
# Submitted via: dBpowerAMP V12.0
#
DISCID=7d062f0a
DTITLE=Willie Nelson - Before His Time [RCA] (L)
DYEAR=1977
DGENRE=Country
TTITLE0=One In A Row
TTITLE1=I'd Trade All My Tomorrows (For Just One Yesterday)
TTITLE2=She's Not For You
TTITLE3=You Ought To Hear Me Cry
TTITLE4=To Make A Long Story Short ( She's Gone)
TTITLE5=I'm A Memory
TTITLE6=Stay Away From Lonely Places
TTITLE7=It Should Be Easier Now
TTITLE8=Little Things
TTITLE9=How Long Have You Been There
EXTD=
EXTT0=
EXTT1=
EXTT2=
EXTT3=
EXTT4=
EXTT5=
EXTT6=
EXTT7=
EXTT8=
EXTT9=
PLAYORDER=
